<?xml version="1.0" encoding="UTF-8"?>
<svg version="1.1" viewBox="0 0 1500 1500" width="1280" height="1280" xmlns="http://www.w3.org/2000/svg">
<path transform="translate(0)" d="m0 0h1500v1500h-1500z" fill="#FEFEFE"/>
<path transform="translate(535,677)" d="m0 0h320v244h-62l-1-170-4-8-8-5h-102l-8 5-4 7-1 4-1 167h-129l-1-1v-242z" fill="#FEFEFE"/>
<path transform="translate(530,657)" d="m0 0h329l8 4 6 7 2 6v250l-4 9-7 6-6 2h-65v26l-5 8-5 4-7 2h-94l-9-3-7-8-2-7v-22h-133l-10-5-6-9-1-5v-246l3-9 5-6zm5 20-1 1v242l1 1h129l1-167 3-8 4-5 6-3h102l8 5 4 8 1 170h62v-244z"/>
<path transform="translate(684,757)" d="m0 0h89v204h-88l-1-1z" fill="#FEFEFE"/>
<path transform="translate(838,519)" d="m0 0h11l18 2 15 4 15 6 15 8 13 10 16 16 7 10 8 14 6 14 5 19 1 7 1 28 8 4 6 7 3 9v53l-3 9-7 8-10 4h-18l-10-4-7-8-3-9v-53l3-9 6-7 8-4h3l-1-27-4-18-6-15-8-13-8-10-10-10-13-9-16-8-17-5-16-2h-11l-15 2-15 4-19 9-12 9-10 9-11 14-8 15-5 15-3 16-1 11h-20v-12l3-18 6-18 8-16 9-13 11-12 11-10 15-10 17-8 17-5 11-2z"/>
<path transform="translate(709,250)" d="m0 0 9 1 5 6 1 5-1 18-3 25v21l2 4 5 1 5-4 1 3-2 8-7 8-6 3h-9l-6-4-4-6-2-7v-21l1-2-19 3h-4v20l2 9v6l-5 7-4 2h-8l-5-3-4-8-1-5v-12l4-28v-16l-1-6-5 1-5 7h-1v-10l4-10 8-7 2-1h9l5 3 4 6 2 7 1 26 11-4 10-2 1-2v-26l-1-7 6-7z"/>
<path transform="translate(670,1145)" d="m0 0h10l7 6 2 7-2 16-5 15-1 2 2-1h19l4 1 1-5 5-15 2-14 5-4 3-1h9l6 5 1 2v8l-5 15-11 25-5 15v9l1 2h7 3l-4 8-6 5-5 2h-10l-6-4-4-7v-13l6-20-22-2-5 16-1 12-1 4-7 6-9 1-6-4-2-4-1-8 3-14 14-31 2-6 1-10-1-2-6 1-3 4h-2l2-8 5-8z"/>
<path transform="translate(974,306)" d="m0 0 9 1 6 5 1 7-5 10-11 16-14 21-6 13v5h7l-2 5-7 4-10 1-7-3-4-4-1-3v-7l1-6-8 6-5 2h-11l-6-4-3-4-2-8 1-11 5-12 6-9 7-7 10-5 12-2 9 3 5 5 2 4 1 7 8-13 4-9 2-6z"/>
<path transform="translate(936,1108)" d="m0 0h7l5 5 3 7 10 41 5 15 4 5 4-1 3-3 1 2v7l-4 8-6 5-5 2-7-1-5-4-4-6-3 14-6 8-7 3-8-1-9-6-7-10-4-10-2-11 1-12 4-10 6-7 5-3 8-1 7 3 4 3-6-20-5-8 1-6 7-7z"/>
<path transform="translate(1e3 357)" d="m0 0h9l8 4 5 6 1 7-3 6-11 10-11 9-5 6-1 4 2 2 10 1 6-2 10-14 7-7 8-4h8l6 4 1 6-5 9-9 8-14 7-2 5v6l1 2 7 1 10-4 11-9 9-12 3-5 6-1 9 3 4 4v9l-6 10-8 9-13 9-11 4-5 1h-10l-10-3-7-5-4-6-2-6v-9l1-2-3 1h-16l-9-3-6-5-3-6v-7l3-6 8-9 14-11 5-5v-5h-7l4-5z"/>
<path transform="translate(293,726)" d="m0 0h15l11 4 9 7 6 9 3 7 1 5v10l-4 13-6 8-8 7-9 4-5 1h-12l-12-4-9-7-6-8-4-10v-17l5-12 9-10 12-6z"/>
<path transform="translate(1192,726)" d="m0 0h15l11 4 8 6 6 7 5 12v17l-5 12-8 9-8 5-10 3h-12l-10-3-9-6-8-9-4-10-1-5v-10l3-10 5-8 5-5 8-6z"/>
<path transform="translate(1039,1065)" d="m0 0h7l7 5 9 13 4 8 3 10v18l-4 11-7 8-7 4-3 1h-9l-8-3-1 9-4 11-7 8-6 3h-8l-6-4-6-7-9-20-3-6-2-2h-3l-2 6-3-3-1-2v-10l4-8 7-5 7-1 5 2 5 6 13 27 3 4h5l3-5 1-4v-7l-8-9-7-11-2-6v-9l3-5 4-3 7 1 7 8 5 11 2 13 6 5h7l2-3v-12l-5-12-9-13-5-5v-6l5-8z"/>
<path transform="translate(285,564)" d="m0 0h10l6 4 3 4 1 3v10l-2 3-8-3h-6l-4 2-2 7 2 5 4 3 7 1 8-3 13-11 10-7 3-1h9l10 5 8 11 3 10v19l-4 12-7 9-8 4h-11l-6-3-7-8-1-3v-11l3-1 11 3h9l6-2 1-10-4-6-2-1h-9l-10 6-16 10-6 2h-10l-9-4-5-4-5-9-2-8v-13l4-13 4-6 6-5z"/>
<path transform="translate(355,877)" d="m0 0h7l11 4 10 9 6 10 3 8v13l-4 7-5 4-3 1h-7l-6-3-6-7-1-4 10-4 4-4v-7l-5-5-9 1-5 4-4 11-4 19-6 10-9 4h-10l-11-4-9-7-7-8-6-13-1-5v-9l3-8 5-5 4-3 4-1h8l7 3 5 4 3 5v2l-12 5-6 4-3 4v8l5 4 2 1h6l6-4 5-14 7-18 6-7 8-4z"/>
<path transform="translate(1093,444)" d="m0 0h13l10 4 5 5 3 6-1 9-2 4 7-4 5 1 7 6 2 5v6l-3 3-13 5-17 9-8 6-1 5 5 1v2l-4 2h-10l-10-5-4-7v-6l5-7h-11l-8-3-5-6-1-3v-7l4-10 8-9 10-7 10-4z"/>
<path transform="translate(770,280)" d="m0 0h12l6 4 4 8 2-7 3-3 3-1h8l7 3 2 3-1 5-8 24-2 12v8l5-1 3-1-2 7-7 6-8 3-8-1-6-5-2-8-7 8-8 4-9-1-6-5-4-8-1-3v-20l3-10 5-9 5-6 8-5z"/>
<path transform="translate(352,491)" d="m0 0h5l12 13 11 10 10 6 6 1-1-6 4 1 4 7v13l-4 7-6 3-10-2 4 9v11l-4 6-8 4h-9l-10-3-12-7-8-8-6-10-2-8v-8l3-8 5-5 4-2h9l-6-5-1-5 3-8z"/>
<path transform="translate(362,958)" d="m0 0 14 2 8 5 6 7 1 3v7l-4 8 4-2 7 1 6 7 1 3v7l-2 3-24 6-15 6-5 4 1 4 3 2-4 2-9-1-8-5-4-5-1-8 3-5 5-4-13-2-8-6-2-4v-9l4-8 7-7 12-7 9-3z"/>
<path transform="translate(797,1179)" d="m0 0h11l4 2 2 3-2 9-4 22v14l1 3 5-1 2-1-1 7-7 8-6 3h-9l-6-4-3-8-6 9-6 4-9 1-6-3-6-7-4-11v-20l4-12 6-8 7-6 5-2h11l7 5 2 4 2-7z"/>
<path transform="translate(1093 1e3)" d="m0 0h7l9 14 11 14 8 7h5l1-5 4 4 1 2v12l-4 8-7 4-7-1-4-3 2 13-2 8-5 5-4 2h-11l-14-7-6-5-7-9-4-8-2-7v-11l4-10 5-4 5-2 10 1-5-5v-6l5-8z"/>
<path transform="translate(534,300)" d="m0 0h8l7 6 4 11 4 20 6-16 7-8 8-3 6 1 6 4 4 8v12l-6 12-2 3 7 4 3 1h9l6-2v8l-5 10-8 6-3 1h-7l-8-4-4-5-3-8v-9l4-7 1-9-3-3-6 1-4 4-3 9v7l4 11 6 10v10l-4 5-4 2h-9l-7-6-4-10-10-39-7-19-4-5 2-6 6-6z"/>
<path transform="translate(572,1115)" d="m0 0h7l6 3 4 6v7l-6 12-10 13-1 3 10-5 7-2h7l8 4 4 4 1 3v8l-4 7-8 7-9 3h-8l4 13 5 5 6 3-5 5-7 3h-11l-6-3-6-7-1-3v-8l5-10 5-5 13-4 4-4-1-5-2-2-6-1-9 3-7 6-4 8-3 10-4 6-4 3-7 1-6-3-4-5-1-7 4-10 22-33 8-13 4-11 2-4z"/>
<path transform="translate(448,384)" d="m0 0h8l7 5 9 13 9 14 5 5 3-1 1-4 3 1 2 5v8l-4 8-6 5-8 1-7-4-7-9-10-17-3-3-4 1-2 4v12l4 8 14 13 2 4v8l-4 6-4 2h-9l-6-4-6-8-10-18-5-5-4 1-3 4-3-4-1-3v-9l3-6 7-6 2-1h7l7 4 2 2v-12l4-13 5-5z"/>
<path transform="translate(442,1059)" d="m0 0h12l6 4 4 5 1 2v7l-5 8h20l9 4 4 5 1 6-4 7-10 10-16 12-4 5 1 3 5 1-5 5-3 1h-7l-8-3-5-5-1-3v-8l4-6 7-7 17-12 1-6-6-2-10 1-6 3-5 5-7 10-5 4-2 1h-8l-6-4-2-4v-9l4-6 9-8 12-8 6-5 1-6-6-1 1-3z"/>
<path transform="translate(1167,583)" d="m0 0 12 1 11 4 8 6 7 8 5 11 1 4v9l-4 8-8 5-4 1h-7l-10-4-6-5-5-10-1-12-6 4-3 7 1 8 6 9 10 6v2l-3 1h-10l-7-3-8-7-6-9-3-10v-11l3-8 7-8 10-5z"/>
<path transform="translate(1159,877)" d="m0 0h10l8 4 6 8 3 9v7l-4 10-5 6 7 1 7-3 4-6 1-4v-7l-3-10-1-3 5 1 8 7 4 9v15l-3 10-6 9-5 4-6 3-11 1-9-2-9-5-8-7-6-10-3-9v-16l4-11 6-8z"/>
<path transform="translate(1147,508)" d="m0 0 10 1 6 4 4 5 2 4v6l-4 6-5 4 13 2 8 4 3 4v6l-4 5-9 4h-10l-5-3-2-2 1-4 1-1v-7l-3-3h-10l-9 5-8 6-4 2h-9l-5-3-3-3-1-8 3-6 6-5 16-6 18-6 1-6-6-2 2-2z"/>
<path transform="translate(847,290)" d="m0 0h10l6 3 4 5v11l10-8 7-3h6l4 2 2 9-3 9-5 6-6 3h-5l-3-7-2-2h-7l-5 5-3 10-2 14-3 5-4 4-3 1h-8l-6-5-1-2v-12l5-12 7-15 1-9-8 1 1-5 8-7z"/>
<path transform="translate(1128,943)" d="m0 0h7l6 3 5 5 3 4 1 9-1 3-9 1-2 2v8l5 6 8 4 12 5 5 6 1 3v7l-3 5-5 3h-9l-10-6-10-9-11-8h-5l-1 7-5-3-4-9v-8l4-8 6-4h7l6 2-5-11-1-8 3-7z"/>
<path transform="translate(874,1163)" d="m0 0 6 1 4 5 1 3v12l-4 8-3 2h-4l-3-4-4-1-5 2-3 7 1 8 5 13 1 7-3 8-6 5h-7l-5-3-4-5-2-7-2-30-2-4-5 1-3 2v-8l4-8 7-5 4-1h7l6 4 4 8 5-12 5-5z"/>
<path transform="translate(384,449)" d="m0 0h6l9 6 9 12 8 12 3 3h5l1-5 5 5 1 2v12l-4 6-3 3-3 1h-8l-9-6-7-10-6-10-5-5-5-1-2 6-4-4-2-5v-10l4-8z"/>
<path transform="translate(514,1115)" d="m0 0h7l7 3 5 5 1 8-4 8-9 9-14 11-3 4v5h6l-5 6-6 2-10-1-6-4-3-6 1-9 6-9 12-9 8-7 2-6v-2h-6l2-4 5-3z"/>
<path transform="translate(494,351)" d="m0 0h9l7 6 5 11 6 21 3 5 4-1 3-3 2 4v8l-4 8-6 5h-11l-6-5-5-10-5-20-3-5-4-2-4 5-2-4v-10l4-8z"/>
<path transform="translate(409,1024)" d="m0 0h10l8 4 4 5 1 9-3 5-7 6-27 11-3 3v4l4 2-4 3-7 1-9-3-6-7-1-9 4-6 6-5 12-5 12-4 5-4 1-5-5-1v-2z"/>
<path transform="translate(951,676)" d="m0 0h12l3 3v49l-3 3h-12l-3-3v-49z" fill="#FEFEFE"/>
<path transform="translate(938,333)" d="m0 0 6 1 3 4 1 8-6 8-8 8-7 4h-7l-2-3 1-9 6-11 7-7z" fill="#FEFEFE"/>
<path transform="translate(926,1156)" d="m0 0h7l6 4 2 8v18l-3 7-1 1-7-1-5-7-3-9v-15l3-5z" fill="#FEFEFE"/>
<path transform="translate(780,293)" d="m0 0 6 2 4 7-1 7-5 12-6 8-3 2h-5l-3-6v-13l4-11 6-7z" fill="#FEFEFE"/>
<path transform="translate(1103,462)" d="m0 0 9 1 2 2v9l-3 5-15 6-4 1h-10l-4-3 1-5 7-8 7-5z" fill="#FEFEFE"/>
<path transform="translate(353,521)" d="m0 0 7 2 7 7 7 10 2 9-2 3h-7l-12-6-8-9-3-7 1-5 3-3z" fill="#FEFEFE"/>
<path transform="translate(1086,1034)" d="m0 0 9 1 6 7 7 14 1 9-3 3-6-1-9-6-6-7-4-9v-7z" fill="#FEFEFE"/>
<path transform="translate(777,1194)" d="m0 0 7 1 4 5 1 6-3 12-5 10-4 4h-5l-3-4-1-4v-15l3-9 4-5z" fill="#FEFEFE"/>
<path transform="translate(363,978)" d="m0 0h12l4 2 1 2v7l-4 6-12 3-9 1-10-2-3-3 2-5 5-5 10-5z" fill="#FEFEFE"/>
<path transform="translate(365,426)" d="m0 0h6l6 4 3 7-1 7-4 6-6 3-7-1-5-4-2-4v-8l4-7z"/>
<path transform="translate(537,1095)" d="m0 0h9l6 4 3 5v6l-4 6-4 3h-10l-6-4-3-6 1-7 5-6z"/>
<path transform="translate(484,323)" d="m0 0h8l6 5 2 8-3 7-4 4-4 2-9-1-5-6-1-8 3-6 4-4z"/>
<path transform="translate(442,1012)" d="m0 0 8 1 6 4 2 4v9l-5 6-3 1h-8l-5-3-4-5-1-8 4-6z"/>
<path transform="translate(1180,604)" d="m0 0 10 1 6 4 2 6-3 5-2 1h-11l-5-3-3-5v-7z" fill="#FEFEFE"/>
<path transform="translate(1160,895)" d="m0 0 7 2 5 5 2 3v7l-4 6-2 1-8-5-5-6-1-7 3-5z" fill="#FEFEFE"/>
</svg>
